<?xml version="1.0" encoding="utf-8"?>
<!-- Generator: Adobe Illustrator 17.0.0, SVG Export Plug-In . SVG Version: 6.00 Build 0)  -->
<!DOCTYPE svg PUBLIC "-//W3C//DTD SVG 1.1//EN" "http://www.w3.org/Graphics/SVG/1.1/DTD/svg11.dtd">
<svg version="1.1" id="Layer_1" xmlns="http://www.w3.org/2000/svg" xmlns:xlink="http://www.w3.org/1999/xlink" x="0px" y="0px"
	 width="338.983px" height="121.287px" viewBox="0 0 338.983 121.287" enable-background="new 0 0 338.983 121.287"
	 xml:space="preserve">
<polygon fill="#E9E225" points="58.623,104.283 65.359,104.283 87.523,66.55 86.06,58.43 "/>
<path fill="#FFFFFF" d="M19.166,26.75h6.579c20.727,0,24.346,9.541,24.346,31.803v17.218c0,9.321-0.657,13.159-1.645,16.011
	c-1.755,5.264-6.689,12.502-19.082,12.502H19.166V26.75z M44.827,58.553c0-7.677-0.438-13.488-1.755-17.546
	c-3.18-9.212-11.076-9.212-18.533-9.212v67.663c7.019,0,10.309,0,14.146-2.741c2.961-2.193,6.142-5.703,6.142-20.508V58.553z"/>
<path fill="#FFFFFF" d="M80.245,26.421h-7.457l-14.146,77.862h5.702L75.64,39.143c0.219-1.207,0.329-2.413,0.548-3.51
	c0.11-1.097,0.22-2.083,0.329-3.18c0.438,2.851,0.878,6.25,1.097,7.347l10.967,64.483h5.702L80.245,26.421z"/>
<path fill="#FFFFFF" d="M158.98,26.75h13.928c4.825,0,13.379,0,13.379,12.722v11.076c0,9.211-4.387,10.637-9.212,11.733
	c9.65,1.426,11.844,5.154,11.844,14.366v13.16c0,7.019-2.193,14.476-14.586,14.476H158.98V26.75z M164.243,31.466v28.732h5.264
	c11.076,0,11.405-6.361,11.405-10.857V40.02c0-6.909-2.632-8.554-9.87-8.554H164.243z M164.353,64.913v34.654h9.103
	c9.65,0,10.089-5.264,10.089-12.062V76.538c0-5.374-1.097-11.625-13.599-11.625H164.353z"/>
<path fill="#FFFFFF" d="M202.074,26.75h5.264v60.097c0,5.373,0,13.708,10.309,13.708c2.961,0,6.142-0.987,8.006-3.729
	c1.645-2.193,1.864-4.716,1.864-13.16V26.75h5.373v62.07c0,3.181,0,16.779-15.572,16.779c-3.29,0-7.128-0.878-9.87-2.961
	c-5.373-4.058-5.373-10.419-5.373-16.67V26.75z"/>
<path fill="#FFFFFF" d="M248.021,26.86h14.914c5.922,0,15.353,0.878,15.353,13.489v12.063c0,3.18,0,11.624-10.856,13.708
	l14.257,38.163h-5.703l-14.146-37.725h-8.444v37.725h-5.373V26.86z M253.394,31.466v30.486h9.76c6.032,0,9.432-2.412,9.432-8.225
	V41.775c0-8.883-3.838-10.309-9.103-10.309H253.394z"/>
<polygon fill="#FFFFFF" points="268.844,70.042 253.873,29.344 249.944,34.286 263.141,70.042 "/>
<path fill="#FFFFFF" d="M289.774,44.077c0-6.031,0.987-9.541,2.742-12.063c2.961-4.276,7.896-6.031,13.27-6.031
	c4.935,0,9.76,1.645,12.502,5.702c2.741,4.058,2.741,9.322,2.741,14.037v42.66c0,3.181-0.329,7.348-2.522,10.638
	c-1.864,2.851-6.031,6.251-13.27,6.251c-15.463,0-15.463-12.722-15.463-17.547V44.077z M315.874,48.683
	c0-5.922-0.109-11.953-3.181-15.133c-1.754-1.755-4.496-2.742-7.237-2.742c-2.961,0-5.593,0.987-7.348,2.742
	c-3.181,3.07-3.181,7.896-3.181,9.431v42.66c0,7.347,0.878,10.527,4.168,12.94c1.754,1.206,3.947,1.864,6.36,1.864
	c1.974,0,3.729-0.439,5.154-1.316c4.716-2.632,5.264-7.566,5.264-12.721V48.683z"/>
<path fill="#FFFFFF" d="M108.012,41.993c0-7.566,2.303-11.624,9.321-11.624c5.353,0,7.548,2.508,8.456,5.529h5.402
	c-1.04-5.361-4.221-10.135-13.967-10.135c-13.599,0-14.586,10.638-14.586,17.108c0,10.856,4.826,15.682,13.489,24.346
	c8.883,8.772,11.296,12.062,11.296,20.836c0,8.006-2.304,12.611-9.979,12.611c-2.304,0-6.471-0.438-8.993-3.619
	c-2.303-2.961-2.303-6.141-2.303-11.953V78.95h-5.374v10.857c0,11.076,7.238,15.682,16.23,15.682
	c14.805,0,15.792-11.076,15.792-18.424c0-10.527-3.619-14.256-11.624-22.48C109.547,52.74,108.012,49.561,108.012,41.993z"/>
<rect x="206.728" y="11.09" fill="#FFFFFF" width="6.333" height="6.333"/>
<rect x="222.728" y="11.09" fill="#FFFFFF" width="6.333" height="6.333"/>
</svg>
