<?xml version="1.0" encoding="utf-8"?>
<!-- Generator: Adobe Illustrator 17.0.0, SVG Export Plug-In . SVG Version: 6.00 Build 0)  -->
<!DOCTYPE svg PUBLIC "-//W3C//DTD SVG 1.1//EN" "http://www.w3.org/Graphics/SVG/1.1/DTD/svg11.dtd">
<svg version="1.1" id="Layer_1" xmlns="http://www.w3.org/2000/svg" xmlns:xlink="http://www.w3.org/1999/xlink" x="0px" y="0px"
	 width="56.8px" height="60px" viewBox="0 0 56.8 60" enable-background="new 0 0 56.8 60" xml:space="preserve">
<g>
	<g>
		<polygon fill="#FFFFFF" points="12.05,34.478 19.355,34.478 20.182,33.65 14.048,33.65 22.728,24.971 25.782,28.025 
			26.367,27.439 22.728,23.8 		"/>
	</g>
	<g>
		<path fill="#FFFFFF" d="M26.936,28.008l-0.585,0.585l0.002,0.002l-5.882,5.882h0.004h10.648h2.281l-5.874-5.874l-0.008-0.008
			l0.002-0.002l-0.585-0.585l-0.002,0.002L26.936,28.008z M26.946,29.189l4.461,4.461h-1.111h-7.827l4.469-4.469L26.946,29.189z"/>
	</g>
	<g>
		<polygon fill="#FFFFFF" points="31.149,23.8 27.591,27.358 28.176,27.943 31.149,24.971 39.828,33.65 33.883,33.65 34.711,34.478 
			41.826,34.478 		"/>
	</g>
</g>
<g>
	<path fill="#FFFFFF" d="M27.481,53.311c-11.833,0-21.459-9.626-21.459-21.459c0-11.833,9.626-21.459,21.459-21.459
		c11.833,0,21.459,9.626,21.459,21.459C48.94,43.685,39.314,53.311,27.481,53.311z M27.481,11.393
		c-11.281,0-20.459,9.178-20.459,20.459s9.178,20.459,20.459,20.459S47.94,43.133,47.94,31.852S38.762,11.393,27.481,11.393z"/>
</g>
</svg>
